HIERARCHY
ROOT Hips
{
	OFFSET 0.00000 0.00000 0.00000
	CHANNELS 6 Xposition Yposition Zposition Zrotation Yrotation Xrotation 
	JOINT LHipJoint
	{
		OFFSET 0 0 0
		CHANNELS 3 Zrotation Yrotation Xrotation
		JOINT LeftHip
		{
			OFFSET 1.58161 -1.81893 0.78828
			CHANNELS 3 Zrotation Yrotation Xrotation
			JOINT LeftKnee
			{
				OFFSET 2.53374 -6.96141 0.00000
				CHANNELS 3 Zrotation Yrotation Xrotation
				JOINT LeftAnkle
				{
					OFFSET 2.63509 -7.23986 0.00000
					CHANNELS 3 Zrotation Yrotation Xrotation
					JOINT LeftToe
					{
						OFFSET 0.14115 -0.38781 2.05350
						CHANNELS 3 Zrotation Yrotation Xrotation
						End Site
						{
							OFFSET 0.00000 -0.00000 1.05543
						}
					}
				}
			}
		}
	}
	JOINT RHipJoint
	{
		OFFSET 0 0 0
		CHANNELS 3 Zrotation Yrotation Xrotation
		JOINT RightHip
		{
			OFFSET -1.11138 -1.81893 0.78828
			CHANNELS 3 Zrotation Yrotation Xrotation
			JOINT RightKnee
			{
				OFFSET -2.58392 -7.09926 0.00000
				CHANNELS 3 Zrotation Yrotation Xrotation
				JOINT RightAnkle
				{
					OFFSET -2.66423 -7.31992 0.00000
					CHANNELS 3 Zrotation Yrotation Xrotation
					JOINT RightToe
					{
						OFFSET -0.18831 -0.51739 2.12114
						CHANNELS 3 Zrotation Yrotation Xrotation
						End Site
						{
							OFFSET -0.00000 -0.00000 1.09845
						}
					}
				}
			}
		}
	}
	JOINT lowerback
	{
		OFFSET 0 0 0
		CHANNELS 3 Zrotation Yrotation Xrotation
		JOINT Chest
		{
			OFFSET -0.01511 1.97958 -0.08829
			CHANNELS 3 Zrotation Yrotation Xrotation
			JOINT Chest2
			{
				OFFSET 0.08344 1.97334 -0.04330
				CHANNELS 3 Zrotation Yrotation Xrotation
				JOINT lowerneck
				{
					OFFSET 0 0 0
					CHANNELS 3 Zrotation Yrotation Xrotation
					JOINT Neck
					{
						OFFSET 0.00559 1.76246 0.31246
						CHANNELS 3 Zrotation Yrotation Xrotation
						JOINT Head
						{
							OFFSET -0.07011 1.80354 -0.30524
							CHANNELS 3 Zrotation Yrotation Xrotation
							End Site
							{
								OFFSET -0.02385 1.83547 -0.13906
							}
						}
					}
				}
				JOINT LeftCollar
				{
					OFFSET 0 0 0
					CHANNELS 3 Zrotation Yrotation Xrotation
					JOINT LeftShoulder
					{
						OFFSET 3.20667 1.30156 -0.60240
CHANNELS 3 Zrotation Xrotation Yrotation
						JOINT LeftElbow
						{
OFFSET 0 -4.956630 0.000000
CHANNELS 3 Zrotation Xrotation Yrotation
							JOINT LeftWrist
							{
OFFSET 0 -3.381770 0.000000
CHANNELS 3 Zrotation Xrotation Yrotation
								JOINT lhand
								{
									OFFSET 0 0 0
CHANNELS 3 Zrotation Xrotation Yrotation
									JOINT LFingers
									{
OFFSET 0 -0.662910 0.000000
CHANNELS 3 Zrotation Xrotation Yrotation
										End Site
										{
OFFSET 0 -0.534450 0.000000
										}
									}
								}
								JOINT LThumb
								{
OFFSET 0 0.000000 0.000000
CHANNELS 3 Zrotation Xrotation Yrotation
									End Site
									{
OFFSET 0 -0.542610 0.542610
									}
								}
							}
						}
					}
				}
				JOINT RightCollar
				{
					OFFSET 0 0 0
					CHANNELS 3 Zrotation Yrotation Xrotation
					JOINT RightShoulder
					{
						OFFSET -3.06877 1.34672 -0.60964
CHANNELS 3 Zrotation Xrotation Yrotation
						JOINT RightElbow
						{
OFFSET 0 -5.083650 0.000000
CHANNELS 3 Zrotation Xrotation Yrotation
							JOINT RightWrist
							{
OFFSET 0 -3.359840 0.000000
CHANNELS 3 Zrotation Xrotation Yrotation
								JOINT rhand
								{
									OFFSET 0 0 0
CHANNELS 3 Zrotation Xrotation Yrotation
									JOINT RFingers
									{
OFFSET 0 -0.820760 0.000000
CHANNELS 3 Zrotation Xrotation Yrotation
										End Site
										{
OFFSET 0 -0.661720 0.000000
										}
									}
								}
								JOINT RThumb
								{
OFFSET 0 0.000000 0.000000
CHANNELS 3 Zrotation Xrotation Yrotation
									End Site
									{
OFFSET 0 -0.671820 0.671820
									}
								}
							}
						}
					}
				}
			}
		}
	}
}
MOTION
Frames: 9
Frame Time: 0.008333333333333333
-5.829100 17.874100 1.789800 -96.113800 86.296000 -78.418200 0.000000 0.000000 0.000000 -6.129600 -5.463600 -31.306900 2.628900 10.068600 29.199300 0.391700 -3.543600 -11.139000 1.389400 -7.457700 -21.078800 0.000000 0.000000 0.000000 10.459600 10.091100 -28.351100 -2.362300 -9.583000 27.636700 -0.198600 -6.391100 -13.094400 -0.081300 1.839100 -5.061200 -1.427400 1.579400 4.635800 4.711500 2.185200 3.121800 5.585600 1.091800 0.383000 2.337500 -1.802200 -17.101300 -5.860700 0.947700 41.020500 -2.809900 0.515300 18.301200 0.000000 0.000000 0.000000 -14.582200 -21.162300 -81.565800 14.936500 -24.057600 3.200000 37.097100 -11.111000 -65.253600 0.000000 0.000000 0.000000 -7.125000 0.000000 0.000000 171.751700 9.959100 -6.769900 0.000000 0.000000 0.000000 12.420500 -25.223700 32.657000 -10.295400 -17.200300 -1.561200 -12.839600 -29.978300 5.129900 0.000000 0.000000 0.000000 7.125000 0.000000 -0.000000 11.459800 35.050700 2.847500
-5.829025 17.874473 1.788681 -95.962462 86.289358 -78.295816 0.000000 0.000000 0.000000 -6.136391 -5.458376 -31.280483 2.631810 10.073674 29.215643 0.392745 -3.493751 -11.155567 1.433205 -7.569040 -21.412744 0.000000 0.000000 0.000000 10.467510 10.084011 -28.299833 -2.358569 -9.576060 27.614611 -0.197630 -6.392667 -13.079177 -0.091673 1.951634 -5.371936 -1.421729 1.576191 4.667515 4.715007 2.181693 3.124860 5.585451 1.090457 0.368971 2.344067 -1.794812 -17.085480 -5.874282 0.963296 41.017739 -2.814004 0.520971 18.296648 0.000000 0.000000 0.000000 -14.617870 -21.162375 -81.444759 14.873368 -23.969319 3.174329 37.022923 -10.937871 -65.259346 0.000000 0.000000 0.000000 -7.125000 0.000000 0.000000 171.732447 9.946787 -6.788183 0.000000 0.000000 0.000000 12.432216 -25.178179 32.722296 -10.324951 -17.246269 -1.569931 -12.974819 -29.999344 5.150869 0.000000 0.000000 0.000000 7.125000 0.000000 0.000000 11.352639 35.078311 2.812203
-5.829000 17.874305 1.787167 -95.773891 86.287149 -78.118027 0.000000 0.000000 0.000000 -6.114568 -5.500333 -31.196543 2.632308 10.074563 29.218442 0.399946 -3.504970 -11.258220 1.422983 -7.543221 -21.335116 0.000000 0.000000 0.000000 10.467147 10.071652 -28.283139 -2.355478 -9.570253 27.596019 -0.197398 -6.384434 -13.066563 -0.097810 2.016494 -5.551128 -1.418520 1.575740 4.672242 4.719697 2.181485 3.123339 5.588355 1.090542 0.364742 2.347186 -1.792349 -17.060647 -5.891064 0.975002 41.015815 -2.819635 0.524476 18.289781 0.000000 0.000000 0.000000 -14.638668 -21.150827 -81.341842 14.828064 -23.906008 3.155947 36.856208 -10.974247 -65.212544 0.000000 0.000000 0.000000 -7.125000 0.000000 0.000000 171.713095 9.867840 -6.817793 0.000000 0.000000 0.000000 12.428271 -25.124532 32.779171 -10.357457 -17.296768 -1.579549 -13.072363 -30.033242 5.204245 0.000000 0.000000 0.000000 7.125000 0.000000 0.000000 11.281430 35.136752 2.777644
-5.829095 17.874000 1.785546 -95.806826 86.288752 -78.151258 0.000000 0.000000 0.000000 -6.064084 -5.599831 -31.089196 2.631657 10.073437 29.214812 0.409005 -3.566754 -11.384986 1.355895 -7.367975 -20.811492 0.000000 0.000000 0.000000 10.463212 10.058249 -28.278552 -2.352001 -9.563692 27.575027 -0.195829 -6.393353 -13.050091 -0.099306 2.031629 -5.593000 -1.400942 1.578310 4.664090 4.715088 2.185436 3.118814 5.573328 1.092795 0.364942 2.355047 -1.797676 -17.034465 -5.902573 0.971502 41.017498 -2.826674 0.523689 18.283369 0.000000 0.000000 0.000000 -14.632894 -21.133839 -81.288370 14.798916 -23.865254 3.144138 36.636346 -11.158773 -65.155353 0.000000 0.000000 0.000000 -7.125000 0.000000 0.000000 171.685385 9.767762 -6.858062 0.000000 0.000000 0.000000 12.441204 -25.088256 32.749822 -10.374608 -17.323389 -1.584633 -13.149206 -29.997465 5.250706 0.000000 0.000000 0.000000 7.125000 0.000000 0.000000 11.226024 35.187252 2.749482
-5.829394 17.874000 1.784129 -96.351435 86.293602 -78.693777 0.000000 0.000000 0.000000 -5.984012 -5.769974 -30.995095 2.631209 10.072617 29.212350 0.415274 -3.669139 -11.468714 1.227093 -7.025299 -19.790556 0.000000 0.000000 0.000000 10.460750 10.048398 -28.261837 -2.347001 -9.554289 27.545103 -0.190605 -6.449470 -13.022554 -0.095575 1.993272 -5.487034 -1.350123 1.584280 4.658120 4.689417 2.194615 3.112919 5.516837 1.098093 0.363823 2.376763 -1.814168 -17.015286 -5.899365 0.939936 41.025930 -2.835032 0.516152 18.280459 0.000000 0.000000 0.000000 -14.586926 -21.118019 -81.320160 14.784588 -23.845106 3.138317 36.404861 -11.428764 -65.133637 0.000000 0.000000 0.000000 -7.125000 0.000000 0.000000 171.640014 9.695750 -6.908583 0.000000 0.000000 0.000000 12.507172 -25.097808 32.546396 -10.355877 -17.294286 -1.579111 -13.223308 -29.799486 5.246975 0.000000 0.000000 0.000000 7.125000 0.000000 0.000000 11.164832 35.187103 2.734110
-5.829327 17.875462 1.782491 -97.042141 86.283170 -79.382028 0.000000 0.000000 0.000000 -5.942768 -5.861292 -31.002925 2.627690 10.066385 29.192118 0.410866 -3.687067 -11.406638 1.164613 -6.849854 -19.271748 0.000000 0.000000 0.000000 10.490753 10.015003 -28.247461 -2.340685 -9.542254 27.506769 -0.316635 -5.307340 -13.909480 -1.148821 -5.185655 14.745143 -1.265010 1.592736 4.636575 4.662795 2.208181 3.121721 5.440311 1.105512 0.387345 2.391459 -1.829563 -17.005248 -5.879118 0.900619 41.013523 -2.834908 0.505470 18.266799 0.000000 0.000000 0.000000 -14.545490 -21.130935 -81.385878 14.764996 -23.817645 3.130376 36.061280 -11.747308 -65.128666 0.000000 0.000000 0.000000 -7.125000 0.000000 0.000000 171.561737 9.613208 -6.988937 0.000000 0.000000 0.000000 12.570727 -25.150648 32.363371 -10.334295 -17.260795 -1.572712 -13.258217 -29.688742 5.222112 0.000000 0.000000 0.000000 7.125000 0.000000 0.000000 11.132304 35.163701 2.732338
-5.829443 17.876621 1.780754 -97.466035 86.262016 -79.806324 0.000000 0.000000 0.000000 -5.912778 -5.894030 -30.993895 2.621673 10.055792 29.157628 0.406860 -3.697913 -11.349825 1.143746 -6.791242 -19.098388 0.000000 0.000000 0.000000 10.528395 9.975537 -28.240342 -2.334724 -9.530977 27.470793 -0.361281 -4.906389 -14.226294 -1.523109 -7.792735 22.086237 -1.238875 1.583434 4.628175 4.689487 2.197630 3.130109 5.454521 1.100513 0.401682 2.355972 -1.821063 -16.997833 -5.877907 0.926220 41.001738 -2.822147 0.510099 18.260033 0.000000 0.000000 0.000000 -14.589041 -21.152989 -81.313973 14.717841 -23.751503 3.111410 35.557213 -12.132214 -65.062543 0.000000 0.000000 0.000000 -7.125000 0.000000 0.000000 171.468747 9.442310 -7.097502 0.000000 0.000000 0.000000 12.570968 -25.184945 32.282082 -10.310362 -17.223585 -1.565625 -13.243237 -29.639998 5.199583 0.000000 0.000000 0.000000 7.125000 0.000000 0.000000 11.140997 35.140251 2.741015
-5.829645 17.877815 1.779053 -97.746072 86.232452 -80.095803 0.000000 0.000000 0.000000 -5.897891 -5.876134 -31.001553 2.614800 10.043702 29.118291 0.401347 -3.691879 -11.271400 1.146566 -6.799374 -19.122343 0.000000 0.000000 0.000000 10.572913 9.932725 -28.227395 -2.329559 -9.521252 27.439755 -0.360161 -4.920185 -14.221123 -1.510834 -7.762774 21.995712 -1.258932 1.563166 4.645161 4.755776 2.172401 3.133150 5.536730 1.088163 0.394970 2.291691 -1.799749 -16.990580 -5.898212 0.993960 40.997614 -2.806466 0.524478 18.261724 0.000000 0.000000 0.000000 -14.696108 -21.170480 -81.146999 14.652368 -23.659576 3.085120 35.023380 -12.490026 -64.962717 0.000000 0.000000 0.000000 -7.125000 0.000000 0.000000 171.381143 9.236157 -7.208001 0.000000 0.000000 0.000000 12.524702 -25.191390 32.256487 -10.286727 -17.186816 -1.558633 -13.198389 -29.621054 5.195459 0.000000 0.000000 0.000000 7.125000 0.000000 0.000000 11.177059 35.133910 2.751883
-5.829794 17.879531 1.777560 -98.044868 86.196930 -80.421389 0.000000 0.000000 0.000000 -5.904533 -5.814867 -31.073118 2.609128 10.033703 29.085904 0.391497 -3.653448 -11.131628 1.151790 -6.814299 -19.166521 0.000000 0.000000 0.000000 10.624330 9.889443 -28.191351 -2.325753 -9.514088 27.416920 -0.362698 -4.895783 -14.238212 -1.516954 -7.777699 22.040785 -1.308408 1.540705 4.703741 4.844430 2.144715 3.124643 5.657920 1.075029 0.351837 2.225947 -1.779899 -16.980506 -5.943285 1.074555 41.010001 -2.800346 0.541418 18.273813 0.000000 0.000000 0.000000 -14.839909 -21.166077 -80.939842 14.580206 -23.558087 3.056166 34.628021 -12.698601 -64.865034 0.000000 0.000000 0.000000 -7.125000 0.000000 0.000000 171.324578 9.063551 -7.286730 0.000000 0.000000 0.000000 12.452988 -25.158331 32.227757 -10.266802 -17.155847 -1.552737 -13.148316 -29.592548 5.230682 0.000000 0.000000 0.000000 7.125000 0.000000 0.000000 11.223625 35.166969 2.754495
